<svg width="1440" height="171" viewBox="0 0 1440 171" fill="none" xmlns="http://www.w3.org/2000/svg">
<rect y="171" width="171" height="1440" transform="rotate(-90 0 171)" fill="#7F6CF9"/>
<path d="M127.311 25.2754V48.1606C117.308 34.223 101.785 24.243 84.0206 24.243C49.1811 24.243 24 50.0534 24 85.4997C24 120.946 49.1811 146.756 84.0206 146.756C101.785 146.756 117.308 136.776 127.311 122.839V145.724H144.041V25.2754H127.311ZM84.7105 130.926C60.0468 130.926 42.1097 111.826 42.1097 85.4997C42.1097 59.1731 60.0468 40.0734 84.7105 40.0734C109.374 40.0734 127.311 59.1731 127.311 85.4997C127.311 111.826 109.374 130.926 84.7105 130.926Z" fill="#E7E7E7"/>
<path d="M291.379 25.2754H267.06L220.492 125.42L173.752 25.2754H148.916V145.724H165.818V47.6444L211.351 145.724H228.598L274.476 46.7841V145.724H291.379V25.2754Z" fill="#E7E7E7"/>
<path d="M499.34 145.724H521.072L480.885 95.3077C500.892 92.3825 511.758 78.2728 511.758 60.5496C511.758 40.5896 497.96 25.2754 473.124 25.2754H420.347V145.724H437.595V95.8239H460.189L499.34 145.724ZM437.595 40.9337H472.089C485.887 40.9337 493.648 47.9886 493.648 60.5496C493.648 73.1107 485.887 80.1655 472.089 80.1655H437.595V40.9337Z" fill="#E7E7E7"/>
<path d="M688.463 25.2754V48.1606C678.46 34.223 662.937 24.243 645.173 24.243C610.333 24.243 585.152 50.0534 585.152 85.4997C585.152 120.946 610.333 146.756 645.173 146.756C662.937 146.756 678.46 136.776 688.463 122.839V145.724H705.193V85.4997V25.2754H688.463ZM645.862 130.926C621.199 130.926 603.262 111.826 603.262 85.4997C603.262 59.1731 621.199 40.0734 645.862 40.0734C670.526 40.0734 688.463 59.1731 688.463 85.4997C688.463 111.826 670.526 130.926 645.862 130.926Z" fill="#E7E7E7"/>
<path d="M771.348 23.5547C736.163 23.5547 710.465 50.5696 710.465 85.4997C710.465 120.43 737.025 147.445 771.52 147.445C796.529 147.445 819.295 131.958 827.746 108.041H809.637C802.22 121.978 789.285 131.27 771.52 131.27C749.271 131.27 731.851 115.44 728.402 93.587H831.368C834.128 44.203 800.841 23.5547 771.348 23.5547ZM770.83 39.7292C791.01 39.7292 811.706 55.0434 813.431 77.4124H728.229C731.334 55.5596 747.201 39.7292 770.83 39.7292Z" fill="#E7E7E7"/>
<path d="M925.2 25.2754H821.716V41.7941H864.835V145.724H882.082V41.7941H925.2V25.2754Z" fill="#E7E7E7"/>
<path d="M975.233 23.5547C940.048 23.5547 914.35 50.5696 914.35 85.4997C914.35 120.43 940.911 147.445 975.405 147.445C1000.41 147.445 1023.18 131.958 1031.63 108.041H1013.52C1006.11 121.978 993.17 131.27 975.405 131.27C953.156 131.27 935.737 115.44 932.287 93.587H1035.25C1038.01 44.203 1004.73 23.5547 975.233 23.5547ZM974.715 39.7292C994.895 39.7292 1015.59 55.0434 1017.32 77.4124H932.115C935.219 55.5596 951.087 39.7292 974.715 39.7292Z" fill="#E7E7E7"/>
<path d="M1119.63 145.724H1141.36L1101.17 95.3077C1121.18 92.3825 1132.05 78.2728 1132.05 60.5496C1132.05 40.5896 1118.25 25.2754 1093.41 25.2754H1040.64V145.724H1057.88V95.8239H1080.48L1119.63 145.724ZM1057.88 40.9337H1092.38C1106.18 40.9337 1113.94 47.9886 1113.94 60.5496C1113.94 73.1107 1106.18 80.1655 1092.38 80.1655H1057.88V40.9337Z" fill="#E7E7E7"/>
<path d="M1399.27 25.2754V48.1606C1389.27 34.223 1373.74 24.243 1355.98 24.243C1321.14 24.243 1295.96 50.0534 1295.96 85.4997C1295.96 120.946 1321.14 146.756 1355.98 146.756C1373.74 146.756 1389.27 136.776 1399.27 122.839V145.724H1416V25.2754H1399.27ZM1356.67 130.926C1332.01 130.926 1314.07 111.826 1314.07 85.4997C1314.07 59.1731 1332.01 40.0734 1356.67 40.0734C1381.33 40.0734 1399.27 59.1731 1399.27 85.4997C1399.27 111.826 1381.33 130.926 1356.67 130.926Z" fill="#E7E7E7"/>
<path d="M345.895 135.441H355.884V145.429H345.895H335.907H325.918H315.93V135.441H325.918H335.907H345.895ZM365.872 125.453H375.861V135.441H365.872H355.884V125.453H365.872ZM315.93 135.441H305.942V125.453H315.93V135.441ZM375.861 125.453V115.464H385.849V125.453H375.861ZM305.942 125.453H295.953V115.464V105.476V95.4873V85.4989H305.942V95.4873V105.476V115.464V125.453ZM385.849 115.464V105.476H395.837V115.464H385.849ZM395.837 105.476V95.4873V85.4989H405.826V95.4873V105.476H395.837ZM405.826 85.4989V75.5105V65.522V55.5336V45.5452H415.814V55.5336V65.522V75.5105V85.4989H405.826ZM305.942 85.4989V75.5105V65.522H315.93V75.5105V85.4989H305.942ZM315.93 65.522V55.5336H325.918V65.522H315.93ZM325.918 55.5336V45.5452H335.907V55.5336H325.918ZM405.826 45.5452H395.837V35.5568H405.826V45.5452ZM345.895 35.5568H355.884V45.5452H345.895H335.907V35.5568H345.895ZM395.837 35.5568H385.849H375.861H365.872H355.884V25.5684H365.872H375.861H385.849H395.837V35.5568Z" fill="#E7E7E7"/>
<path d="M1157.01 145.429V135.441V125.453H1167.02V135.441V145.429H1157.01ZM1277.13 135.441H1287.14V145.429H1277.13H1267.12H1257.11V135.441H1267.12H1277.13ZM1287.14 135.441V125.453V115.464H1297.15V125.453V135.441H1287.14ZM1257.11 135.441H1247.1H1237.09V125.453H1227.08V115.464H1237.09V105.476H1247.1V115.464V125.453H1257.11V135.441ZM1167.02 125.453V115.464V105.476V95.4873V85.4989H1177.03V95.4873V105.476V115.464V125.453H1167.02ZM1287.14 115.464H1277.13H1267.12V105.476H1277.13H1287.14V115.464ZM1227.08 115.464H1217.07V105.476V95.4873H1227.08V105.476V115.464ZM1247.1 105.476V95.4873V85.4989V75.5105V65.522H1257.11V75.5105V85.4989V95.4873V105.476H1247.1ZM1217.07 95.4873H1207.06V85.4989V75.5105H1217.07V85.4989V95.4873ZM1177.03 85.4989V75.5105V65.522V55.5336H1187.04V65.522V75.5105V85.4989H1177.03ZM1207.06 75.5105H1197.05V65.522V55.5336H1187.04V45.5452V35.5568H1197.05V45.5452H1207.06V55.5336V65.522V75.5105ZM1157.01 65.522H1167.02V75.5105H1157.01H1147.01V65.522H1157.01ZM1257.11 65.522V55.5336V45.5452V35.5568H1267.12V45.5452V55.5336V65.522H1257.11ZM1147.01 65.522H1137V55.5336V45.5452H1147.01V55.5336V65.522ZM1147.01 45.5452V35.5568H1157.01V45.5452H1147.01ZM1267.12 35.5568V25.5684H1277.13V35.5568H1267.12ZM1187.04 35.5568H1177.03H1167.02H1157.01V25.5684H1167.02H1177.03H1187.04V35.5568Z" fill="#E7E7E7"/>
</svg>
