<svg width="1258" height="729" viewBox="0 0 1258 729" fill="none" xmlns="http://www.w3.org/2000/svg">
<path d="M337.613 47.4552C436.657 -40.9264 604.103 230.301 626.748 268.168C627.932 270.147 630.687 270.146 631.869 268.166C654.482 230.293 821.655 -40.925 920.698 47.4552C1023.73 139.393 763.919 403.434 640.889 547.321C634.817 554.422 623.804 554.423 617.731 547.322C494.683 403.435 234.583 139.393 337.613 47.4552Z" stroke="#E0E0E0" stroke-width="2"/>
<path d="M770.5 359L937.613 526.113C945.864 534.364 950.5 545.556 950.5 557.225V716.5C950.5 722.575 945.575 727.5 939.5 727.5H727.5" stroke="#E0E0E0" stroke-width="2"/>
<path d="M914.099 53.3476C827.001 -24.4241 668.291 224.022 635.374 277.994C632.581 282.574 626.013 282.577 623.216 278C590.216 223.995 430.971 -24.8525 343.863 52.9282C247.835 138.673 507.933 404.328 624.005 541.703C626.82 545.034 631.779 545.034 634.594 541.702C750.647 404.34 1010.13 139.092 914.099 53.3476Z" stroke="#E0E0E0" stroke-width="2"/>
<path d="M850.948 282.244C815.012 235.601 771.972 187.922 730.919 143.09C686.387 196.495 649.422 254.958 635.373 277.994C632.58 282.574 626.012 282.577 623.215 278C609.151 254.983 572.156 196.577 527.587 143.147C486.532 187.953 443.472 235.614 407.484 282.247C449.807 340.781 501.939 401.568 549.02 455.45C584.318 424.875 612.603 394.388 623.938 381.759C626.805 378.565 631.788 378.565 634.653 381.761C645.982 394.399 674.255 424.909 709.533 455.469C756.605 401.568 808.701 340.771 850.948 282.244Z" fill="#E7E7E7" stroke="#E7E7E7" stroke-width="2"/>
<circle cx="139" cy="49" r="5" fill="#E0E0E0"/>
<circle r="5" transform="matrix(-1 0 0 1 1119 49)" fill="#E0E0E0"/>
<circle cx="139" cy="283" r="5" fill="#E0E0E0"/>
<circle r="5" transform="matrix(-1 0 0 1 1119 283)" fill="#E0E0E0"/>
<path d="M305.685 282.725C314.342 285.516 401.395 312.076 354.242 235.5C304.656 154.972 284.56 83.5327 334.111 40.4604C359.262 18.5986 387.807 17.0786 417 27.912C454.5 41.8282 478 77 478 16C478 64.5 500 83.1968 531.42 119C585.472 180.591 626.014 252.237 629 256C631.986 252.237 673.485 180.591 727.537 119C758.957 83.1968 780.957 64.5 780.957 16C780.957 77 804.457 41.8282 841.957 27.912C871.15 17.0786 899.695 18.5986 924.846 40.4604C974.397 83.5327 954.301 154.972 904.715 235.5C857.562 312.076 944.615 285.516 953.272 282.725M305.685 282.725C305.238 282.581 305 282.5 305 282.5C305 282.5 305.23 282.571 305.685 282.725ZM305.685 282.725C314.085 285.566 399.042 316.639 520 448.622C554.059 487.584 586.979 523.916 614.375 554.367C622.349 563.23 636.26 563.231 644.248 554.378C671.724 523.925 704.894 487.589 738.957 448.622C859.915 316.639 944.872 285.566 953.272 282.725M953.272 282.725C953.719 282.581 953.957 282.5 953.957 282.5C953.957 282.5 953.727 282.571 953.272 282.725Z" stroke="#E0E0E0" stroke-width="2"/>
<circle cx="629" cy="573" r="5" fill="#E0E0E0"/>
<path d="M629 573L629 544" stroke="#E0E0E0" stroke-width="2"/>
<path d="M475.5 371L320.387 526.113C312.136 534.364 307.5 545.556 307.5 557.225V716.5C307.5 722.575 312.425 727.5 318.5 727.5H328" stroke="#E0E0E0" stroke-width="2"/>
<path d="M629 270L629 176" stroke="#E0E0E0" stroke-width="2"/>
<path d="M785 211.5L956.313 29.0251C958.174 27.0431 961.5 28.3599 961.5 31.0785V94C961.5 195.5 890.263 249.756 906.5 269C915.597 279.781 941.493 266.725 957.419 257.061C962.999 253.675 970.5 257.626 970.5 264.153V265.095C970.5 269.851 974.625 273.557 979.354 273.049L1107.33 259.307C1113.83 258.609 1119.5 263.705 1119.5 270.244V282.5" stroke="#E0E0E0" stroke-width="2"/>
<path d="M473.5 211.5L302.187 29.0251C300.326 27.0431 297 28.3599 297 31.0785V94C297 195.5 368.237 249.756 352 269C342.903 279.781 317.007 266.725 301.081 257.061C295.501 253.675 288 257.626 288 264.153V265.095C288 269.851 283.875 273.557 279.146 273.049L151.174 259.307C144.672 258.609 139 263.705 139 270.244V282.5" stroke="#E0E0E0" stroke-width="2"/>
<path d="M475.5 202L306.55 20.5739C299.742 13.2632 287.5 18.0806 287.5 28.0704V32.8252C287.5 37.8457 282.929 41.6255 277.998 40.6829L152.065 16.6133C145.285 15.3174 139 20.5146 139 27.4178V48.999" stroke="#E0E0E0" stroke-width="2"/>
<circle cx="328.699" cy="56.6992" r="2" fill="#7F6CF9"/>
<circle cx="334.5" cy="50" r="2" fill="#7F6CF9"/>
<circle cx="329" cy="45" r="2" fill="#7F6CF9"/>
<circle cx="323" cy="52" r="2" fill="#7F6CF9"/>
<circle cx="340" cy="56.5" r="2" fill="#7F6CF9"/>
<circle cx="334.5" cy="63" r="2" fill="#7F6CF9"/>
<circle cx="474.5" cy="201" r="2" fill="#7F6CF9"/>
<circle cx="469.5" cy="207" r="2" fill="#7F6CF9"/>
<circle cx="407" cy="282" r="2" fill="#7F6CF9"/>
<circle cx="527" cy="143" r="2" fill="#7F6CF9"/>
<path d="M782.5 202L951.45 20.5739C958.258 13.2632 970.5 18.0806 970.5 28.0704V32.8252C970.5 37.8457 975.071 41.6255 980.002 40.6829L1105.93 16.6133C1112.72 15.3174 1119 20.5146 1119 27.4178V48.999" stroke="#E0E0E0" stroke-width="2"/>
<circle r="2" transform="matrix(-1 0 0 1 929.301 57.6992)" fill="#7F6CF9"/>
<circle r="2" transform="matrix(-1 0 0 1 923.5 50)" fill="#7F6CF9"/>
<circle r="2" transform="matrix(-1 0 0 1 918 56.5)" fill="#7F6CF9"/>
<circle r="2" transform="matrix(-1 0 0 1 923.5 64)" fill="#7F6CF9"/>
<circle r="2" transform="matrix(-1 0 0 1 783.5 201)" fill="#7F6CF9"/>
<circle r="2" transform="matrix(-1 0 0 1 788.5 207)" fill="#7F6CF9"/>
<circle r="2" transform="matrix(-1 0 0 1 851 282)" fill="#7F6CF9"/>
<circle r="2" transform="matrix(-1 0 0 1 731 143)" fill="#7F6CF9"/>
<circle r="2" transform="matrix(-1 0 0 1 935 51)" fill="#7F6CF9"/>
<circle r="2" transform="matrix(-1 0 0 1 929 44)" fill="#7F6CF9"/>
<circle cx="629" cy="176" r="5" fill="#E0E0E0"/>
<circle cx="1119" cy="127" r="78" stroke="#E0E0E0" stroke-width="2"/>
<circle cx="139" cy="127" r="78" stroke="#E0E0E0" stroke-width="2"/>
<circle cx="139" cy="422" r="138" stroke="#E0E0E0" stroke-width="2"/>
<circle cx="1119" cy="422" r="138" stroke="#E0E0E0" stroke-width="2"/>
<circle cx="629" cy="629" r="55" stroke="#E0E0E0" stroke-width="2"/>
<circle cx="629" cy="120" r="55" stroke="#E0E0E0" stroke-width="2"/>
</svg>
